<svg width="200" height="50" viewBox="0 0 200 50" fill="none" xmlns="http://www.w3.org/2000/svg">
<path d="M53.6811 1.82664e-05C51.6365 1.82664e-05 49.9328 0.275607 48.5698 0.895724C47.2067 1.51584 46.1163 2.3197 45.3212 3.35322C44.5262 4.38675 43.9582 5.58105 43.6175 6.95909C43.2994 8.31416 43.1177 9.7611 43.1177 11.2769V13.6426H38.6425V19.66H43.1177V38.2176H51.1822V19.66H56.6343V13.6426H51.1822V11.1851C51.1822 10.6339 51.2276 10.0597 51.3412 9.50846C51.4321 8.95725 51.6138 8.45196 51.8864 7.99262C52.159 7.55624 52.4998 7.18876 52.9769 6.93612C53.4312 6.68348 54.0446 6.54568 54.7942 6.54568C55.1804 6.54568 55.5893 6.54568 55.9755 6.63755C56.3617 6.70645 56.7024 6.77535 57.0205 6.89019L57.5657 0.482313C56.9978 0.321542 56.3844 0.183738 55.7256 0.114836C55.0441 0.0229673 54.3626 1.82664e-05 53.6811 1.82664e-05Z" fill="#182C4B"/>
<path d="M0 38.2179H7.06496V13.5969H0V38.2179Z" fill="#182C4B"/>
<path d="M30.9183 13.8265C32.0541 14.4237 32.9855 15.1816 33.6897 16.1232H33.7125C34.4167 17.0649 34.9164 18.1444 35.2345 19.3616C35.5525 20.5789 35.7115 21.7962 35.7115 23.0134V38.2178H27.6016V24.8049C27.6016 24.1159 27.5334 23.4498 27.4199 22.8297C27.3063 22.2096 27.1245 21.6584 26.8519 21.176C26.5793 20.7167 26.2159 20.3263 25.7388 20.0506C25.2617 19.775 24.6484 19.6372 23.9442 19.6372C23.2399 19.6372 22.6039 19.775 22.0587 20.0506C21.5135 20.3263 21.0591 20.7167 20.6956 21.199C20.3322 21.6813 20.0596 22.2555 19.8778 22.8986C19.6961 23.5417 19.6052 24.2077 19.6052 24.8967V38.2178H11.4953V13.6428H19.3099V17.0419H19.4008C19.6961 16.5137 20.0823 15.9854 20.5593 15.4802C21.0364 14.9749 21.6043 14.5385 22.2404 14.171C22.8765 13.8035 23.5807 13.505 24.3304 13.2753C25.08 13.0456 25.8751 12.9308 26.7383 12.9308C28.374 12.9308 29.7597 13.2294 30.9183 13.8265Z" fill="#182C4B"/>
<path fill-rule="evenodd" clip-rule="evenodd" d="M107.906 13.6428V16.7893H107.815C106.975 15.4802 105.839 14.5155 104.43 13.8724C103.022 13.2523 101.545 12.9308 100.001 12.9308C98.1606 12.9308 96.525 13.2753 95.0938 13.9873C93.6399 14.6993 92.4359 15.6409 91.4364 16.8352C90.4368 18.0066 89.6644 19.3846 89.142 20.9234C88.6195 22.4622 88.3469 24.0929 88.3469 25.8154C88.3469 27.538 88.6195 29.1457 89.142 30.6845C89.6644 32.2003 90.4368 33.5554 91.4364 34.7038C92.4359 35.8521 93.6626 36.7708 95.0938 37.4369C96.5477 38.1259 98.1833 38.4475 100.069 38.4475C101.704 38.4475 103.158 38.1489 104.453 37.5517C105.725 36.9546 106.748 36.1737 107.497 35.1861H107.656V36.656C107.656 38.7231 107.088 40.3997 105.952 41.6399C104.817 42.8801 103.067 43.5003 100.705 43.5003C99.3419 43.5003 97.9334 43.2476 96.5022 42.7423C95.0711 42.2371 93.7762 41.4332 92.5949 40.3997L88.574 46.1645C90.2324 47.4047 92.2314 48.3693 94.5031 49.0124C96.7975 49.6785 99.0011 50 101.182 50C103.363 50 105.316 49.7244 107.111 49.1502C108.906 48.576 110.405 47.7033 111.654 46.5319C112.904 45.3606 113.858 43.8907 114.562 42.1222C115.244 40.3308 115.607 38.2637 115.607 35.8521V13.6428H107.906ZM107.429 28.1811C107.156 28.939 106.748 29.605 106.248 30.1563C105.748 30.7075 105.112 31.1668 104.385 31.5113C103.658 31.8558 102.818 32.0396 101.886 32.0396C100.955 32.0396 100.16 31.8788 99.4554 31.5113C98.7512 31.1668 98.1606 30.7075 97.6608 30.1333C97.1838 29.5591 96.7976 28.8931 96.525 28.1351C96.2751 27.3772 96.1388 26.5963 96.1388 25.7695C96.1388 24.9427 96.2751 24.1159 96.525 23.3579C96.7976 22.6 97.161 21.934 97.6608 21.3827C98.1606 20.8086 98.7512 20.3722 99.4554 20.0506C100.16 19.7291 100.977 19.5683 101.886 19.5683C102.795 19.5683 103.635 19.7291 104.34 20.0506C105.067 20.3722 105.68 20.8315 106.202 21.4057C106.725 21.9799 107.134 22.646 107.406 23.4039C107.679 24.1618 107.838 24.9427 107.838 25.7695C107.838 26.5963 107.702 27.4461 107.406 28.1811H107.429Z" fill="#182C4B"/>
<path fill-rule="evenodd" clip-rule="evenodd" d="M140.823 16.3986C141.913 17.547 142.754 18.948 143.367 20.6016V20.5557C143.981 22.2093 144.276 24.0697 144.276 26.1827V27.1703C144.276 27.4918 144.253 27.8134 144.23 28.1119H126.466C126.534 28.801 126.738 29.4211 127.079 29.9723C127.42 30.5465 127.852 31.0288 128.397 31.4422C128.919 31.8556 129.533 32.1771 130.214 32.4068C130.873 32.6365 131.577 32.7513 132.304 32.7513C133.576 32.7513 134.667 32.5217 135.553 32.0393C136.439 31.557 137.143 30.9369 137.711 30.179L143.322 33.7389C142.186 35.4155 140.664 36.7247 138.778 37.6204C136.893 38.5391 134.712 38.9755 132.213 38.9755C130.373 38.9755 128.624 38.6999 126.988 38.1257C125.33 37.5285 123.899 36.7017 122.672 35.5993C121.445 34.4968 120.469 33.1418 119.764 31.5341C119.083 29.9034 118.719 27.9971 118.719 25.9989C118.719 24.0008 119.083 22.1864 119.764 20.5557C120.446 18.948 121.377 17.5699 122.559 16.4216C123.74 15.2732 125.126 14.4005 126.738 13.7803C128.351 13.1602 130.146 12.8387 131.963 12.8387C133.781 12.8387 135.439 13.1373 136.938 13.7574C138.46 14.3775 139.733 15.2502 140.823 16.3986ZM126.943 21.3366C126.648 21.9108 126.489 22.5079 126.443 23.128V23.151H136.825C136.825 21.8648 136.416 20.7624 135.621 19.8437C134.826 18.925 133.622 18.4657 132.009 18.4657C131.236 18.4657 130.509 18.5805 129.851 18.8331C129.192 19.0628 128.624 19.4073 128.124 19.8437C127.624 20.2571 127.238 20.7624 126.943 21.3366Z" fill="#182C4B"/>
<path d="M169.56 16.1232C168.856 15.1816 167.925 14.4237 166.789 13.8265C165.63 13.2294 164.244 12.9308 162.609 12.9308C161.746 12.9308 160.95 13.0456 160.201 13.2753C159.451 13.505 158.747 13.8035 158.111 14.171C157.475 14.5385 156.907 14.9749 156.43 15.4802C155.953 15.9854 155.566 16.5137 155.271 17.0419H155.18V13.6428H147.366V38.2178H155.476V24.8967C155.476 24.2077 155.567 23.5417 155.748 22.8986C155.93 22.2555 156.203 21.6813 156.566 21.199C156.93 20.7167 157.384 20.3263 157.929 20.0506C158.474 19.775 159.11 19.6372 159.815 19.6372C160.519 19.6372 161.132 19.775 161.609 20.0506C162.086 20.3263 162.45 20.7167 162.722 21.176C162.995 21.6584 163.177 22.2096 163.29 22.8297C163.404 23.4498 163.472 24.1159 163.472 24.8049V38.2178H171.582V23.0134C171.582 21.7962 171.423 20.5789 171.105 19.3616C170.787 18.1444 170.287 17.0649 169.583 16.1232H169.56Z" fill="#182C4B"/>
<path fill-rule="evenodd" clip-rule="evenodd" d="M196.57 16.3986C197.637 17.547 198.478 18.948 199.091 20.6016C199.682 22.2553 200 24.0697 200 26.1827V27.1703C200 27.4918 200 27.8134 199.955 28.1119H182.19C182.258 28.801 182.463 29.4211 182.803 29.9723C183.144 30.5465 183.576 31.0288 184.121 31.4422C184.643 31.8556 185.257 32.1771 185.938 32.4068C186.62 32.6365 187.301 32.7513 188.028 32.7513C189.3 32.7513 190.391 32.5217 191.277 32.0393C192.163 31.557 192.867 30.9369 193.435 30.179L199.046 33.7389C197.91 35.4155 196.388 36.7017 194.503 37.6204C192.617 38.5391 190.436 38.9755 187.937 38.9755C186.097 38.9755 184.348 38.6999 182.712 38.1257C181.077 37.5285 179.646 36.7017 178.419 35.5993C177.192 34.4968 176.215 33.1418 175.511 31.5341C174.807 29.9034 174.443 27.9971 174.443 25.9989C174.443 24.0008 174.807 22.1864 175.488 20.5557C176.193 18.948 177.124 17.5699 178.305 16.4216C179.487 15.2732 180.872 14.4005 182.485 13.7803C184.098 13.1602 185.916 12.8387 187.71 12.8387C189.505 12.8387 191.163 13.1373 192.685 13.7574C194.184 14.3775 195.479 15.2502 196.57 16.3986ZM182.667 21.3366C182.394 21.9108 182.213 22.5079 182.19 23.128V23.151H192.572C192.572 21.8648 192.163 20.7624 191.368 19.8437C190.572 18.925 189.368 18.4657 187.756 18.4657C186.96 18.4657 186.234 18.5805 185.575 18.8331C184.916 19.0628 184.325 19.4073 183.848 19.8437C183.348 20.2571 182.962 20.7624 182.667 21.3366Z" fill="#182C4B"/>
<path d="M76.578 12.3361C75.3959 11.9756 74.1491 11.788 72.8522 11.788C65.6399 11.788 59.7938 17.7031 59.7938 24.9885C59.7938 32.2739 65.6399 38.189 72.8522 38.189C80.0646 38.189 85.9106 32.2739 85.9106 24.9885C85.9106 23.367 85.6195 21.7912 85.0819 20.3524C84.9702 20.6151 84.8388 20.8712 84.6888 21.1167C83.6091 22.9441 81.6332 24.1678 79.3746 24.1678C79.3004 24.1678 79.2265 24.1665 79.1529 24.1639C79.1862 24.4311 79.2135 24.6984 79.2135 24.9657C79.2135 26.6785 78.5415 28.3001 77.3544 29.5105C76.1448 30.7209 74.5545 31.3832 72.8522 31.3832C71.1499 31.3832 69.5596 30.7209 68.3501 29.5105C67.1406 28.3001 66.491 26.6785 66.491 24.9657C66.491 23.2528 67.163 21.6313 68.3501 20.4209C69.5596 19.2104 71.1499 18.5481 72.8522 18.5481C72.9751 18.5481 73.098 18.5481 73.2208 18.5533C73.1998 18.3434 73.189 18.1304 73.189 17.9149C73.189 15.479 74.567 13.3683 76.578 12.3361Z" fill="#182C4B"/>
<path d="M82.811 17.9149C82.811 19.8335 81.2724 21.3888 79.3746 21.3888C77.4767 21.3888 75.9381 19.8335 75.9381 17.9149C75.9381 15.9964 77.4767 14.4411 79.3746 14.4411C81.2724 14.4411 82.811 15.9964 82.811 17.9149Z" fill="#182C4B"/>
<path d="M7.04607 5.47406C7.04607 7.44741 5.46875 9.04713 3.52304 9.04713C1.57732 9.04713 0 7.44741 0 5.47406C0 3.50071 1.57732 1.90099 3.52304 1.90099C5.46875 1.90099 7.04607 3.50071 7.04607 5.47406Z" fill="#182C4B"/>
</svg>
